<mxfile host="app.diagrams.net" modified="2024-03-05T00:44:21.372Z" agent="Mozilla/5.0 (Windows NT 10.0; Win64; x64) AppleWebKit/537.36 (KHTML, like Gecko) Chrome/122.0.0.0 Safari/537.36" etag="B64knXLoL6bjIz6nZkue" version="24.0.1" type="github">
  <diagram name="Page-1" id="Xdc-RVDjVaiAi9B1amQA">
    <mxGraphModel dx="1882" dy="493" grid="1" gridSize="10" guides="1" tooltips="1" connect="1" arrows="1" fold="1" page="1" pageScale="1" pageWidth="850" pageHeight="1100" background="#ffffff" math="0" shadow="0">
      <root>
        <mxCell id="0" />
        <mxCell id="1" parent="0" />
        <mxCell id="NJQ_k5KweohZO7cWgwbo-26" style="edgeStyle=orthogonalEdgeStyle;rounded=0;orthogonalLoop=1;jettySize=auto;html=1;exitX=0.5;exitY=1;exitDx=0;exitDy=0;entryX=0.5;entryY=0;entryDx=0;entryDy=0;" parent="1" source="NJQ_k5KweohZO7cWgwbo-1" target="NJQ_k5KweohZO7cWgwbo-5" edge="1">
          <mxGeometry relative="1" as="geometry" />
        </mxCell>
        <mxCell id="NJQ_k5KweohZO7cWgwbo-1" value="Start" style="ellipse;whiteSpace=wrap;html=1;" parent="1" vertex="1">
          <mxGeometry x="-335" y="20" width="80" height="60" as="geometry" />
        </mxCell>
        <mxCell id="NJQ_k5KweohZO7cWgwbo-27" style="edgeStyle=orthogonalEdgeStyle;rounded=0;orthogonalLoop=1;jettySize=auto;html=1;exitX=1;exitY=0.5;exitDx=0;exitDy=0;entryX=0.5;entryY=0;entryDx=0;entryDy=0;" parent="1" source="NJQ_k5KweohZO7cWgwbo-5" target="NJQ_k5KweohZO7cWgwbo-71" edge="1">
          <mxGeometry relative="1" as="geometry">
            <mxPoint x="-160" y="428" as="targetPoint" />
          </mxGeometry>
        </mxCell>
        <mxCell id="NJQ_k5KweohZO7cWgwbo-5" value="1" style="ellipse;whiteSpace=wrap;html=1;aspect=fixed;" parent="1" vertex="1">
          <mxGeometry x="-315" y="110" width="40" height="40" as="geometry" />
        </mxCell>
        <mxCell id="NJQ_k5KweohZO7cWgwbo-6" value="def={data, column}&lt;br&gt;p-use={data}" style="text;html=1;align=center;verticalAlign=middle;resizable=0;points=[];autosize=1;strokeColor=none;fillColor=none;" parent="1" vertex="1">
          <mxGeometry x="-355" y="150" width="120" height="40" as="geometry" />
        </mxCell>
        <mxCell id="NJQ_k5KweohZO7cWgwbo-13" style="edgeStyle=orthogonalEdgeStyle;rounded=0;orthogonalLoop=1;jettySize=auto;html=1;exitX=0.5;exitY=1;exitDx=0;exitDy=0;entryX=0.5;entryY=0;entryDx=0;entryDy=0;" parent="1" source="NJQ_k5KweohZO7cWgwbo-7" target="NJQ_k5KweohZO7cWgwbo-10" edge="1">
          <mxGeometry relative="1" as="geometry" />
        </mxCell>
        <mxCell id="NJQ_k5KweohZO7cWgwbo-7" value="2" style="ellipse;whiteSpace=wrap;html=1;aspect=fixed;" parent="1" vertex="1">
          <mxGeometry x="-450" y="170" width="40" height="40" as="geometry" />
        </mxCell>
        <mxCell id="NJQ_k5KweohZO7cWgwbo-8" value="" style="endArrow=classic;html=1;rounded=0;exitX=0;exitY=0.5;exitDx=0;exitDy=0;entryX=0.5;entryY=0;entryDx=0;entryDy=0;" parent="1" source="NJQ_k5KweohZO7cWgwbo-5" target="NJQ_k5KweohZO7cWgwbo-7" edge="1">
          <mxGeometry width="50" height="50" relative="1" as="geometry">
            <mxPoint x="-330" y="290" as="sourcePoint" />
            <mxPoint x="-280" y="240" as="targetPoint" />
            <Array as="points">
              <mxPoint x="-430" y="130" />
            </Array>
          </mxGeometry>
        </mxCell>
        <mxCell id="NJQ_k5KweohZO7cWgwbo-9" value="def={total}" style="text;html=1;align=center;verticalAlign=middle;resizable=0;points=[];autosize=1;strokeColor=none;fillColor=none;" parent="1" vertex="1">
          <mxGeometry x="-530" y="170" width="80" height="30" as="geometry" />
        </mxCell>
        <mxCell id="NJQ_k5KweohZO7cWgwbo-15" style="edgeStyle=orthogonalEdgeStyle;rounded=0;orthogonalLoop=1;jettySize=auto;html=1;exitX=0.5;exitY=1;exitDx=0;exitDy=0;entryX=0.5;entryY=0;entryDx=0;entryDy=0;" parent="1" source="NJQ_k5KweohZO7cWgwbo-10" target="NJQ_k5KweohZO7cWgwbo-14" edge="1">
          <mxGeometry relative="1" as="geometry" />
        </mxCell>
        <mxCell id="NJQ_k5KweohZO7cWgwbo-10" value="3" style="ellipse;whiteSpace=wrap;html=1;aspect=fixed;" parent="1" vertex="1">
          <mxGeometry x="-450" y="250" width="40" height="40" as="geometry" />
        </mxCell>
        <mxCell id="NJQ_k5KweohZO7cWgwbo-11" value="def={rowCount}&lt;br&gt;c-use={data}" style="text;html=1;align=center;verticalAlign=middle;resizable=0;points=[];autosize=1;strokeColor=none;fillColor=none;" parent="1" vertex="1">
          <mxGeometry x="-560" y="250" width="110" height="40" as="geometry" />
        </mxCell>
        <mxCell id="NJQ_k5KweohZO7cWgwbo-19" style="edgeStyle=orthogonalEdgeStyle;rounded=0;orthogonalLoop=1;jettySize=auto;html=1;exitX=0.5;exitY=1;exitDx=0;exitDy=0;entryX=0.5;entryY=0;entryDx=0;entryDy=0;" parent="1" source="NJQ_k5KweohZO7cWgwbo-14" target="NJQ_k5KweohZO7cWgwbo-18" edge="1">
          <mxGeometry relative="1" as="geometry" />
        </mxCell>
        <mxCell id="NJQ_k5KweohZO7cWgwbo-43" style="edgeStyle=orthogonalEdgeStyle;rounded=0;orthogonalLoop=1;jettySize=auto;html=1;exitX=0;exitY=0.5;exitDx=0;exitDy=0;entryX=0;entryY=0.5;entryDx=0;entryDy=0;" parent="1" source="NJQ_k5KweohZO7cWgwbo-14" target="NJQ_k5KweohZO7cWgwbo-36" edge="1">
          <mxGeometry relative="1" as="geometry">
            <mxPoint x="-689.9999999999998" y="740" as="targetPoint" />
            <Array as="points">
              <mxPoint x="-620" y="350" />
              <mxPoint x="-620" y="710" />
            </Array>
          </mxGeometry>
        </mxCell>
        <mxCell id="NJQ_k5KweohZO7cWgwbo-14" value="4" style="ellipse;whiteSpace=wrap;html=1;aspect=fixed;" parent="1" vertex="1">
          <mxGeometry x="-450" y="330" width="40" height="40" as="geometry" />
        </mxCell>
        <mxCell id="NJQ_k5KweohZO7cWgwbo-16" value="def={r}&lt;br&gt;p-use={r, rowCount}" style="text;html=1;align=center;verticalAlign=middle;resizable=0;points=[];autosize=1;strokeColor=none;fillColor=none;" parent="1" vertex="1">
          <mxGeometry x="-420" y="320" width="130" height="40" as="geometry" />
        </mxCell>
        <mxCell id="NJQ_k5KweohZO7cWgwbo-32" style="edgeStyle=orthogonalEdgeStyle;rounded=0;orthogonalLoop=1;jettySize=auto;html=1;exitX=0;exitY=0.5;exitDx=0;exitDy=0;" parent="1" source="NJQ_k5KweohZO7cWgwbo-17" target="NJQ_k5KweohZO7cWgwbo-31" edge="1">
          <mxGeometry relative="1" as="geometry" />
        </mxCell>
        <mxCell id="NJQ_k5KweohZO7cWgwbo-33" style="edgeStyle=orthogonalEdgeStyle;rounded=0;orthogonalLoop=1;jettySize=auto;html=1;exitX=1;exitY=0.5;exitDx=0;exitDy=0;entryX=0.5;entryY=0;entryDx=0;entryDy=0;" parent="1" source="NJQ_k5KweohZO7cWgwbo-17" target="NJQ_k5KweohZO7cWgwbo-30" edge="1">
          <mxGeometry relative="1" as="geometry" />
        </mxCell>
        <mxCell id="NJQ_k5KweohZO7cWgwbo-17" value="6" style="ellipse;whiteSpace=wrap;html=1;aspect=fixed;" parent="1" vertex="1">
          <mxGeometry x="-450" y="510" width="40" height="40" as="geometry" />
        </mxCell>
        <mxCell id="NJQ_k5KweohZO7cWgwbo-22" style="edgeStyle=orthogonalEdgeStyle;rounded=0;orthogonalLoop=1;jettySize=auto;html=1;exitX=0.5;exitY=1;exitDx=0;exitDy=0;" parent="1" source="NJQ_k5KweohZO7cWgwbo-18" target="NJQ_k5KweohZO7cWgwbo-17" edge="1">
          <mxGeometry relative="1" as="geometry" />
        </mxCell>
        <mxCell id="NJQ_k5KweohZO7cWgwbo-18" value="5" style="ellipse;whiteSpace=wrap;html=1;aspect=fixed;" parent="1" vertex="1">
          <mxGeometry x="-450" y="440" width="40" height="40" as="geometry" />
        </mxCell>
        <mxCell id="NJQ_k5KweohZO7cWgwbo-20" value="r &amp;lt; rowCount" style="text;html=1;align=center;verticalAlign=middle;resizable=0;points=[];autosize=1;strokeColor=none;fillColor=none;" parent="1" vertex="1">
          <mxGeometry x="-516" y="390" width="90" height="30" as="geometry" />
        </mxCell>
        <mxCell id="NJQ_k5KweohZO7cWgwbo-21" value="def={n}&lt;br&gt;c-use={data, r, column}" style="text;html=1;align=center;verticalAlign=middle;resizable=0;points=[];autosize=1;strokeColor=none;fillColor=none;" parent="1" vertex="1">
          <mxGeometry x="-600" y="440" width="150" height="40" as="geometry" />
        </mxCell>
        <mxCell id="NJQ_k5KweohZO7cWgwbo-23" value="p-use={n}" style="text;html=1;align=center;verticalAlign=middle;resizable=0;points=[];autosize=1;strokeColor=none;fillColor=none;" parent="1" vertex="1">
          <mxGeometry x="-470" y="550" width="80" height="30" as="geometry" />
        </mxCell>
        <mxCell id="NJQ_k5KweohZO7cWgwbo-28" value="&lt;font style=&quot;font-size: 11px;&quot;&gt;data&lt;/font&gt;&lt;span style=&quot;font-size: 11px; background-color: initial;&quot;&gt;&amp;nbsp;== null&lt;/span&gt;" style="text;html=1;align=center;verticalAlign=middle;resizable=0;points=[];autosize=1;strokeColor=none;fillColor=none;" parent="1" vertex="1">
          <mxGeometry x="-240" y="105" width="80" height="30" as="geometry" />
        </mxCell>
        <mxCell id="NJQ_k5KweohZO7cWgwbo-29" value="&lt;font style=&quot;font-size: 11px;&quot;&gt;data != null&lt;/font&gt;" style="text;html=1;align=center;verticalAlign=middle;resizable=0;points=[];autosize=1;strokeColor=none;fillColor=none;" parent="1" vertex="1">
          <mxGeometry x="-424" y="104" width="80" height="30" as="geometry" />
        </mxCell>
        <mxCell id="NJQ_k5KweohZO7cWgwbo-41" style="edgeStyle=orthogonalEdgeStyle;rounded=0;orthogonalLoop=1;jettySize=auto;html=1;exitX=1;exitY=0.5;exitDx=0;exitDy=0;entryX=1;entryY=1;entryDx=0;entryDy=0;" parent="1" source="NJQ_k5KweohZO7cWgwbo-30" target="NJQ_k5KweohZO7cWgwbo-14" edge="1">
          <mxGeometry relative="1" as="geometry">
            <Array as="points">
              <mxPoint x="-295" y="590" />
              <mxPoint x="-295" y="364" />
            </Array>
          </mxGeometry>
        </mxCell>
        <mxCell id="NJQ_k5KweohZO7cWgwbo-30" value="8" style="ellipse;whiteSpace=wrap;html=1;aspect=fixed;" parent="1" vertex="1">
          <mxGeometry x="-355" y="570" width="40" height="40" as="geometry" />
        </mxCell>
        <mxCell id="NJQ_k5KweohZO7cWgwbo-39" style="edgeStyle=orthogonalEdgeStyle;rounded=0;orthogonalLoop=1;jettySize=auto;html=1;exitX=1;exitY=0.5;exitDx=0;exitDy=0;entryX=0;entryY=0.5;entryDx=0;entryDy=0;" parent="1" source="NJQ_k5KweohZO7cWgwbo-31" target="NJQ_k5KweohZO7cWgwbo-30" edge="1">
          <mxGeometry relative="1" as="geometry" />
        </mxCell>
        <mxCell id="NJQ_k5KweohZO7cWgwbo-31" value="7" style="ellipse;whiteSpace=wrap;html=1;aspect=fixed;" parent="1" vertex="1">
          <mxGeometry x="-550" y="570" width="40" height="40" as="geometry" />
        </mxCell>
        <mxCell id="NJQ_k5KweohZO7cWgwbo-34" value="&lt;font style=&quot;font-size: 11px;&quot;&gt;n == null&lt;/font&gt;" style="text;html=1;align=center;verticalAlign=middle;resizable=0;points=[];autosize=1;strokeColor=none;fillColor=none;" parent="1" vertex="1">
          <mxGeometry x="-405" y="507" width="70" height="30" as="geometry" />
        </mxCell>
        <mxCell id="NJQ_k5KweohZO7cWgwbo-35" value="&lt;font style=&quot;font-size: 11px;&quot;&gt;n != null&lt;/font&gt;" style="text;html=1;align=center;verticalAlign=middle;resizable=0;points=[];autosize=1;strokeColor=none;fillColor=none;" parent="1" vertex="1">
          <mxGeometry x="-530" y="508" width="60" height="30" as="geometry" />
        </mxCell>
        <mxCell id="NJQ_k5KweohZO7cWgwbo-55" style="edgeStyle=orthogonalEdgeStyle;rounded=0;orthogonalLoop=1;jettySize=auto;html=1;exitX=0.5;exitY=1;exitDx=0;exitDy=0;entryX=0.5;entryY=0;entryDx=0;entryDy=0;" parent="1" source="NJQ_k5KweohZO7cWgwbo-36" target="NJQ_k5KweohZO7cWgwbo-52" edge="1">
          <mxGeometry relative="1" as="geometry" />
        </mxCell>
        <mxCell id="NJQ_k5KweohZO7cWgwbo-70" style="edgeStyle=orthogonalEdgeStyle;rounded=0;orthogonalLoop=1;jettySize=auto;html=1;exitX=1;exitY=0.5;exitDx=0;exitDy=0;entryX=0;entryY=0.5;entryDx=0;entryDy=0;" parent="1" source="NJQ_k5KweohZO7cWgwbo-36" target="NJQ_k5KweohZO7cWgwbo-47" edge="1">
          <mxGeometry relative="1" as="geometry" />
        </mxCell>
        <mxCell id="NJQ_k5KweohZO7cWgwbo-36" value="9" style="ellipse;whiteSpace=wrap;html=1;aspect=fixed;" parent="1" vertex="1">
          <mxGeometry x="-450" y="690" width="40" height="40" as="geometry" />
        </mxCell>
        <mxCell id="NJQ_k5KweohZO7cWgwbo-37" value="def={r2}&lt;br&gt;p-use={r2,rowCount}" style="text;html=1;align=center;verticalAlign=middle;resizable=0;points=[];autosize=1;strokeColor=none;fillColor=none;" parent="1" vertex="1">
          <mxGeometry x="-495" y="650" width="130" height="40" as="geometry" />
        </mxCell>
        <mxCell id="NJQ_k5KweohZO7cWgwbo-38" value="&lt;div&gt;def={total}&lt;br&gt;&lt;/div&gt;c-use={total, n}" style="text;html=1;align=center;verticalAlign=middle;resizable=0;points=[];autosize=1;strokeColor=none;fillColor=none;" parent="1" vertex="1">
          <mxGeometry x="-585" y="605" width="100" height="40" as="geometry" />
        </mxCell>
        <mxCell id="NJQ_k5KweohZO7cWgwbo-40" value="&lt;div&gt;def={r}&lt;br&gt;&lt;/div&gt;c-use={r}" style="text;html=1;align=center;verticalAlign=middle;resizable=0;points=[];autosize=1;strokeColor=none;fillColor=none;" parent="1" vertex="1">
          <mxGeometry x="-370" y="605" width="70" height="40" as="geometry" />
        </mxCell>
        <mxCell id="NJQ_k5KweohZO7cWgwbo-44" value="&lt;font style=&quot;font-size: 11px;&quot;&gt;r &amp;gt;= rowCount&lt;/font&gt;" style="text;html=1;align=center;verticalAlign=middle;resizable=0;points=[];autosize=1;strokeColor=none;fillColor=none;" parent="1" vertex="1">
          <mxGeometry x="-606" y="325" width="90" height="30" as="geometry" />
        </mxCell>
        <mxCell id="NJQ_k5KweohZO7cWgwbo-48" style="edgeStyle=orthogonalEdgeStyle;rounded=0;orthogonalLoop=1;jettySize=auto;html=1;exitX=0.5;exitY=0;exitDx=0;exitDy=0;entryX=0.5;entryY=1;entryDx=0;entryDy=0;" parent="1" source="NJQ_k5KweohZO7cWgwbo-47" target="NJQ_k5KweohZO7cWgwbo-71" edge="1">
          <mxGeometry relative="1" as="geometry">
            <mxPoint x="-160" y="468" as="targetPoint" />
          </mxGeometry>
        </mxCell>
        <mxCell id="NJQ_k5KweohZO7cWgwbo-47" value="10" style="ellipse;whiteSpace=wrap;html=1;aspect=fixed;" parent="1" vertex="1">
          <mxGeometry x="-180" y="690" width="40" height="40" as="geometry" />
        </mxCell>
        <mxCell id="NJQ_k5KweohZO7cWgwbo-49" value="c-use={total}" style="text;html=1;align=center;verticalAlign=middle;resizable=0;points=[];autosize=1;strokeColor=none;fillColor=none;" parent="1" vertex="1">
          <mxGeometry x="-140" y="695" width="90" height="30" as="geometry" />
        </mxCell>
        <mxCell id="NJQ_k5KweohZO7cWgwbo-50" value="&lt;font style=&quot;font-size: 11px;&quot;&gt;r2 &amp;lt;= rowCounter&lt;/font&gt;" style="text;html=1;align=center;verticalAlign=middle;resizable=0;points=[];autosize=1;strokeColor=none;fillColor=none;" parent="1" vertex="1">
          <mxGeometry x="-345" y="686" width="110" height="30" as="geometry" />
        </mxCell>
        <mxCell id="NJQ_k5KweohZO7cWgwbo-51" value="&lt;font style=&quot;font-size: 11px;&quot;&gt;r2 &amp;gt; rowCounter&lt;/font&gt;" style="text;html=1;align=center;verticalAlign=middle;resizable=0;points=[];autosize=1;strokeColor=none;fillColor=none;" parent="1" vertex="1">
          <mxGeometry x="-524" y="740" width="100" height="30" as="geometry" />
        </mxCell>
        <mxCell id="NJQ_k5KweohZO7cWgwbo-57" style="edgeStyle=orthogonalEdgeStyle;rounded=0;orthogonalLoop=1;jettySize=auto;html=1;exitX=1;exitY=0.5;exitDx=0;exitDy=0;entryX=0;entryY=0.5;entryDx=0;entryDy=0;" parent="1" source="NJQ_k5KweohZO7cWgwbo-52" target="NJQ_k5KweohZO7cWgwbo-54" edge="1">
          <mxGeometry relative="1" as="geometry" />
        </mxCell>
        <mxCell id="NJQ_k5KweohZO7cWgwbo-52" value="11" style="ellipse;whiteSpace=wrap;html=1;aspect=fixed;" parent="1" vertex="1">
          <mxGeometry x="-450" y="790" width="40" height="40" as="geometry" />
        </mxCell>
        <mxCell id="NJQ_k5KweohZO7cWgwbo-63" style="edgeStyle=orthogonalEdgeStyle;rounded=0;orthogonalLoop=1;jettySize=auto;html=1;exitX=0.5;exitY=1;exitDx=0;exitDy=0;" parent="1" source="NJQ_k5KweohZO7cWgwbo-54" target="NJQ_k5KweohZO7cWgwbo-59" edge="1">
          <mxGeometry relative="1" as="geometry" />
        </mxCell>
        <mxCell id="NJQ_k5KweohZO7cWgwbo-67" style="edgeStyle=orthogonalEdgeStyle;rounded=0;orthogonalLoop=1;jettySize=auto;html=1;exitX=1;exitY=0.5;exitDx=0;exitDy=0;entryX=0;entryY=0.5;entryDx=0;entryDy=0;" parent="1" source="NJQ_k5KweohZO7cWgwbo-54" target="NJQ_k5KweohZO7cWgwbo-66" edge="1">
          <mxGeometry relative="1" as="geometry" />
        </mxCell>
        <mxCell id="NJQ_k5KweohZO7cWgwbo-54" value="12" style="ellipse;whiteSpace=wrap;html=1;aspect=fixed;" parent="1" vertex="1">
          <mxGeometry x="-360" y="790" width="40" height="40" as="geometry" />
        </mxCell>
        <mxCell id="NJQ_k5KweohZO7cWgwbo-56" value="def={n}&lt;br&gt;c-use={data, r2, column}" style="text;html=1;align=center;verticalAlign=middle;resizable=0;points=[];autosize=1;strokeColor=none;fillColor=none;" parent="1" vertex="1">
          <mxGeometry x="-610" y="790" width="150" height="40" as="geometry" />
        </mxCell>
        <mxCell id="NJQ_k5KweohZO7cWgwbo-58" value="p-use{n}" style="text;html=1;align=center;verticalAlign=middle;resizable=0;points=[];autosize=1;strokeColor=none;fillColor=none;" parent="1" vertex="1">
          <mxGeometry x="-375" y="760" width="70" height="30" as="geometry" />
        </mxCell>
        <mxCell id="NJQ_k5KweohZO7cWgwbo-65" style="edgeStyle=orthogonalEdgeStyle;rounded=0;orthogonalLoop=1;jettySize=auto;html=1;exitX=0;exitY=0.5;exitDx=0;exitDy=0;entryX=0;entryY=0.5;entryDx=0;entryDy=0;" parent="1" source="NJQ_k5KweohZO7cWgwbo-59" target="NJQ_k5KweohZO7cWgwbo-36" edge="1">
          <mxGeometry relative="1" as="geometry">
            <Array as="points">
              <mxPoint x="-620" y="900" />
              <mxPoint x="-620" y="710" />
            </Array>
          </mxGeometry>
        </mxCell>
        <mxCell id="NJQ_k5KweohZO7cWgwbo-59" value="13" style="ellipse;whiteSpace=wrap;html=1;aspect=fixed;" parent="1" vertex="1">
          <mxGeometry x="-360" y="880" width="40" height="40" as="geometry" />
        </mxCell>
        <mxCell id="NJQ_k5KweohZO7cWgwbo-61" value="&lt;font style=&quot;font-size: 11px;&quot;&gt;n != null&lt;/font&gt;" style="text;html=1;align=center;verticalAlign=middle;resizable=0;points=[];autosize=1;strokeColor=none;fillColor=none;" parent="1" vertex="1">
          <mxGeometry x="-312" y="786" width="60" height="30" as="geometry" />
        </mxCell>
        <mxCell id="NJQ_k5KweohZO7cWgwbo-62" value="&lt;font style=&quot;font-size: 11px;&quot;&gt;n == null&lt;/font&gt;" style="text;html=1;align=center;verticalAlign=middle;resizable=0;points=[];autosize=1;strokeColor=none;fillColor=none;" parent="1" vertex="1">
          <mxGeometry x="-402" y="840" width="70" height="30" as="geometry" />
        </mxCell>
        <mxCell id="NJQ_k5KweohZO7cWgwbo-64" value="&lt;div&gt;def={r2}&lt;br&gt;&lt;/div&gt;c-use={r2}" style="text;html=1;align=center;verticalAlign=middle;resizable=0;points=[];autosize=1;strokeColor=none;fillColor=none;" parent="1" vertex="1">
          <mxGeometry x="-380" y="915" width="80" height="40" as="geometry" />
        </mxCell>
        <mxCell id="NJQ_k5KweohZO7cWgwbo-69" style="edgeStyle=orthogonalEdgeStyle;rounded=0;orthogonalLoop=1;jettySize=auto;html=1;exitX=0.5;exitY=1;exitDx=0;exitDy=0;entryX=1;entryY=0.5;entryDx=0;entryDy=0;" parent="1" source="NJQ_k5KweohZO7cWgwbo-66" target="NJQ_k5KweohZO7cWgwbo-59" edge="1">
          <mxGeometry relative="1" as="geometry" />
        </mxCell>
        <mxCell id="NJQ_k5KweohZO7cWgwbo-66" value="14" style="ellipse;whiteSpace=wrap;html=1;aspect=fixed;" parent="1" vertex="1">
          <mxGeometry x="-250" y="790" width="40" height="40" as="geometry" />
        </mxCell>
        <mxCell id="NJQ_k5KweohZO7cWgwbo-68" value="def={total}&lt;br&gt;c-use={total, n}" style="text;html=1;align=center;verticalAlign=middle;resizable=0;points=[];autosize=1;strokeColor=none;fillColor=none;" parent="1" vertex="1">
          <mxGeometry x="-215" y="790" width="100" height="40" as="geometry" />
        </mxCell>
        <mxCell id="NJQ_k5KweohZO7cWgwbo-71" value="End" style="ellipse;whiteSpace=wrap;html=1;" parent="1" vertex="1">
          <mxGeometry x="-200" y="390" width="80" height="60" as="geometry" />
        </mxCell>
      </root>
    </mxGraphModel>
  </diagram>
</mxfile>
